<svg xmlns="http://www.w3.org/2000/svg" fill="none" viewBox="0 0 400 240" height="240" width="400">
<path fill="#393C41" d="M64.4402 48.5392L82.3455 17.5264C82.8158 16.6797 83.7252 16.178 84.6659 16.178H97.8989C98.871 16.178 99.749 16.6797 100.219 17.5264L118.125 48.5392H108.78L91.8469 19.2197C91.596 18.7807 90.9375 18.7807 90.6866 19.2197L73.7534 48.5392H64.4088H64.4402Z"/>
<path fill="#393C41" d="M247.382 16.178L229.476 47.1908C229.006 48.0375 228.097 48.5392 227.156 48.5392H213.923C212.951 48.5392 212.073 48.0375 211.602 47.1908L193.697 16.178H203.042L219.975 45.4975C220.226 45.9365 220.884 45.9365 221.135 45.4975L238.037 16.178H247.382Z"/>
<path fill="#393C41" d="M128.975 16.178V39.6963C128.975 40.0726 129.288 40.3548 129.633 40.3548H163.939V48.5079H129.978C129.288 48.5079 128.63 48.1943 128.159 47.7239L121.606 41.1701C121.104 40.6684 120.822 39.9785 120.822 39.2573V16.178H128.975Z" clip-rule="evenodd" fill-rule="evenodd"/>
<path fill="#393C41" d="M258.2 26.9651V24.9895C258.2 24.6132 258.514 24.331 258.859 24.331H293.164V16.178H259.298C258.576 16.178 257.887 16.4602 257.385 16.9619L250.831 23.5157C250.361 23.9861 250.078 24.6446 250.047 25.3031V26.9337H258.2V26.9651Z" clip-rule="evenodd" fill-rule="evenodd"/>
<path fill="#393C41" d="M258.2 25.6176V27.5931C258.2 27.9694 258.514 28.2516 258.859 28.2516H293.164V36.4046H259.204C258.514 36.4046 257.855 36.0911 257.385 35.6207L250.831 29.0669C250.361 28.5965 250.078 27.938 250.047 27.2482V25.6176H258.2Z" clip-rule="evenodd" fill-rule="evenodd"/>
<path fill="#393C41" d="M258.2 37.7523V39.7279C258.2 40.1042 258.514 40.3864 258.859 40.3864H293.164V48.5394H259.298C258.576 48.5394 257.887 48.2572 257.385 47.7555L250.831 41.2017C250.361 40.7313 250.078 40.0728 250.047 39.3829V37.7523H258.2Z" clip-rule="evenodd" fill-rule="evenodd"/>
<path fill="#393C41" d="M187.614 16.2407L178.332 16.178L171.307 28.3448H180.652L187.614 16.2407Z"/>
<path fill="#393C41" d="M182.001 28.3135L170.335 48.5393H179.68L191.345 28.3135H182.001Z"/>
<path fill="#6D4FF7" d="M53.9982 19.6587L35.9989 30.0695C35.2149 30.5399 34.2115 30.5399 33.4275 30.0695L22.4837 23.7666C21.6997 23.2963 21.198 22.4496 21.198 21.5402V0.75L28.8807 5.20281V24.1116C28.8807 24.6133 29.4451 24.9269 29.8527 24.676L46.2215 15.2059L53.9355 19.6587H53.9982Z"/>
<path fill="#6D4FF7" d="M0 12.9794L17.9994 23.3588C18.7833 23.8292 19.285 24.6758 19.285 25.5852V38.191C19.285 39.1004 18.8147 39.9471 17.9994 40.4174L0 50.8282V41.9226L16.3688 32.4526C16.8078 32.2017 16.8078 31.5745 16.3688 31.355L0 21.885V12.9794Z"/>
<path fill="#6D4FF7" d="M21.2604 63.0904V42.3002C21.229 41.3908 21.6994 40.5441 22.5147 40.0738L33.4272 33.7395C34.2111 33.2691 35.2146 33.2691 35.9985 33.7395L53.9979 44.0876L46.2839 48.5404L29.8838 39.1017C29.4447 38.8508 28.9117 39.1644 28.9117 39.6661V58.5749L21.229 63.0277L21.2604 63.0904Z"/>
<path fill="#0190DF" d="M392.85 52.3334L27.5635 79.7401C23.6124 80.0224 20.4139 83.5031 20.4139 87.4542V171.462C20.4139 175.413 23.6438 178.643 27.5949 178.643H392.819C396.77 178.643 400 175.413 400 171.462V58.9499C400 54.9988 396.77 52.0199 392.85 52.3021V52.3334Z"/>
<path fill="white" d="M103.011 148.101C100.972 150.735 97.8993 152.868 93.7915 154.467C89.6836 156.066 84.5409 156.85 78.3634 156.881C73.1894 156.881 68.2349 156.348 63.4998 155.251C58.7648 154.153 53.4026 151.739 53.4026 151.739C52.6187 151.394 52.3051 150.484 52.7127 149.732L57.1028 141.171C57.4791 140.419 58.4199 140.105 59.2038 140.45C59.2038 140.45 63.8448 142.582 67.5136 143.586C71.1825 144.589 74.82 145.059 78.4575 145.059C80.9661 145.059 82.9417 144.871 84.3841 144.495C85.8266 144.15 86.9241 143.617 87.5826 142.959C88.2725 142.3 88.6174 141.485 88.6174 140.575C88.6174 139.384 87.9589 138.474 86.6419 137.784C85.3248 137.095 83.6315 136.499 81.4992 136.028C79.3982 135.558 77.0778 135.088 74.6318 134.649C72.1546 134.21 69.646 133.645 67.0746 132.924C64.5033 132.203 62.1828 131.262 60.1132 130.102C58.0122 128.942 56.3503 127.405 55.0646 125.492C53.7789 123.611 53.1518 121.228 53.1204 118.343C53.1204 115.176 54.1238 112.259 56.1307 109.657C58.1376 107.054 61.2107 104.953 65.3186 103.354C69.4265 101.754 74.5378 100.97 80.6839 100.939C84.7918 100.939 88.8369 101.315 92.788 102.099C96.7391 102.883 101.882 105.047 101.882 105.047C102.666 105.361 103.011 106.27 102.634 107.022L98.6206 115.458C98.2443 116.21 97.3349 116.587 96.5509 116.242C96.5509 116.242 92.0354 114.36 89.1191 113.702C86.2029 113.043 83.3807 112.73 80.6212 112.73C78.1753 112.73 76.2311 112.98 74.7259 113.419C73.2521 113.89 72.1546 114.486 71.5274 115.207C70.8689 115.928 70.5553 116.681 70.5553 117.527C70.5553 118.75 71.2138 119.722 72.5309 120.412C73.8479 121.102 75.5412 121.667 77.6108 122.106C79.6805 122.545 82.0009 122.984 84.5409 123.423C87.0809 123.893 89.5895 124.457 92.0981 125.147C94.6068 125.837 96.8959 126.747 99.0282 127.907C101.129 129.067 102.854 130.572 104.171 132.422C105.488 134.304 106.146 136.624 106.146 139.446C106.146 142.582 105.143 145.467 103.073 148.101H103.011Z"/>
<path fill="white" d="M150.863 155.031C150.863 155.031 148.918 155.909 146.88 156.286C144.842 156.662 142.678 156.882 140.42 156.882C134.243 156.882 129.414 155.596 125.964 152.962C122.515 150.328 120.759 146.69 120.759 139.509V125.116C120.759 125.116 120.696 125.053 120.665 125.053H115.209C114.362 125.053 113.672 124.364 113.672 123.517V115.677C113.672 114.831 114.331 114.141 115.177 114.141H120.696V104.765C120.696 103.918 121.386 103.228 122.233 103.228H136.124C136.971 103.228 137.661 103.887 137.661 104.734V114.11H147.225C148.072 114.11 148.762 114.799 148.762 115.646V123.486C148.762 124.332 148.103 125.022 147.256 125.022H137.724C137.724 125.022 137.724 125.022 137.724 125.053V139.258C137.724 140.105 137.849 141.485 138.006 142.3C138.006 142.3 138.225 143.586 139.135 144.401C140.044 145.216 141.298 145.624 142.835 145.624C144.811 145.624 146.598 144.903 146.598 144.903C147.382 144.589 148.291 144.966 148.605 145.75L151.709 153.056C152.054 153.84 151.709 154.749 150.894 155.094L150.863 155.031Z"/>
<path fill="white" d="M211.571 156.16H198.558C197.711 156.16 197.021 155.501 197.021 154.655V151.895C197.021 151.895 195.014 153.588 192.882 154.623C189.746 156.128 186.359 156.912 182.659 156.912C178.739 156.912 175.196 156.254 172.06 154.937C168.924 153.62 166.479 151.519 164.722 148.697C162.966 145.874 162.057 142.645 162.057 135.495V115.583C162.026 114.736 162.716 114.046 163.562 114.046H177.454C178.3 114.046 178.99 114.736 178.99 115.583C178.99 115.583 179.022 131.293 179.022 133.864C179.022 143.46 185.168 144.432 187.081 144.432C188.743 144.432 190.279 144.087 191.69 143.429C193.101 142.77 194.167 141.704 194.951 140.23C195.735 138.756 195.955 136.185 195.955 136.185C196.018 135.338 196.08 133.958 196.08 133.112V115.551C196.049 114.705 196.739 114.015 197.585 114.015H211.477C212.324 114.015 213.013 114.705 213.013 115.551L213.076 154.592C213.076 155.439 212.386 156.128 211.54 156.128L211.571 156.16Z"/>
<path fill="white" d="M308.592 156.128H294.701C293.854 156.128 293.164 155.47 293.164 154.623L293.101 115.583C293.101 114.736 293.791 114.046 294.638 114.046H308.529C309.376 114.046 310.066 114.736 310.066 115.583L310.129 154.592C310.129 155.439 309.439 156.128 308.592 156.128Z"/>
<path fill="white" d="M309.094 107.147C307.212 108.683 304.704 109.467 301.568 109.467C298.401 109.467 295.892 108.746 294.011 107.241C292.129 105.767 291.189 103.917 291.189 101.722C291.189 99.5269 292.129 97.6768 293.979 96.2344C295.861 94.7605 298.37 94.0393 301.505 94.0393C304.61 94.0393 307.087 94.7292 309 96.1089C310.913 97.4887 311.853 99.2447 311.853 101.408C311.853 103.698 310.913 105.642 309.063 107.178L309.094 107.147Z"/>
<path fill="white" d="M278.739 99.9666C278.739 99.1199 278.049 98.4301 277.203 98.4301H263.311C262.465 98.4301 261.775 99.1513 261.775 99.9979V117.903C261.775 117.903 260.019 116.712 258.953 116.21C257.04 115.332 252.524 113.889 248.416 113.889C244.058 113.889 240.075 114.799 236.469 116.555C232.831 118.342 229.978 120.82 227.877 124.018C225.776 127.217 224.71 131.042 224.741 135.495C224.741 139.885 225.807 143.711 227.94 146.878C230.072 150.076 232.926 152.554 236.563 154.31C240.201 156.066 244.183 156.944 248.542 156.944C252.9 156.944 256.507 156.191 259.392 154.623C261.085 153.714 262.747 152.146 262.747 152.146V154.686C262.747 155.533 263.437 156.222 264.283 156.222H277.36C278.206 156.222 278.896 155.501 278.896 154.655L278.802 99.9352L278.739 99.9666ZM260.771 140.794C259.893 142.3 258.67 143.46 257.165 144.212C255.66 144.996 253.935 145.373 252.022 145.373C250.047 145.373 248.322 144.996 246.786 144.244C245.281 143.491 244.058 142.331 243.148 140.826C242.239 139.321 241.8 137.533 241.8 135.495C241.8 133.3 242.239 131.481 243.117 130.039C243.995 128.596 245.218 127.499 246.723 126.715C248.228 125.931 249.984 125.555 251.928 125.555C253.841 125.555 255.535 125.931 257.071 126.683C258.576 127.436 259.799 128.534 260.709 129.976C261.618 131.418 262.057 133.237 262.057 135.432C262.057 137.471 261.618 139.258 260.74 140.763L260.771 140.794Z"/>
<path fill="white" d="M372.154 124.049C369.802 120.788 366.541 118.248 362.402 116.429C358.263 114.579 353.528 113.67 348.26 113.701C342.96 113.701 338.256 114.642 334.149 116.492C330.041 118.342 326.811 120.882 324.49 124.143C322.139 127.404 320.978 131.136 320.978 135.338C320.978 139.477 322.17 143.177 324.522 146.439C326.874 149.7 330.103 152.24 334.211 154.059C338.319 155.909 343.023 156.818 348.322 156.787C353.622 156.787 358.325 155.846 362.465 153.996C366.604 152.146 369.834 149.606 372.186 146.345C374.537 143.083 375.698 139.383 375.698 135.244C375.698 131.042 374.506 127.31 372.154 124.081V124.049ZM357.102 140.606C356.193 142.111 354.97 143.271 353.434 144.024C351.928 144.808 350.204 145.184 348.291 145.184C346.378 145.184 344.685 144.808 343.148 144.055C341.643 143.303 340.42 142.143 339.479 140.637C338.539 139.132 338.1 137.314 338.1 135.213C338.1 133.049 338.539 131.261 339.479 129.819C340.389 128.377 341.612 127.279 343.148 126.495C344.653 125.711 346.378 125.335 348.291 125.335C350.204 125.335 351.897 125.711 353.434 126.464C354.939 127.216 356.162 128.314 357.102 129.756C358.043 131.199 358.482 132.986 358.482 135.118C358.482 137.219 358.012 139.038 357.102 140.543V140.606Z"/>
<g clip-path="url(#clip0_376_10582)">
<path fill="#393C41" d="M342.822 236.414C342.822 236.691 343.03 236.934 343.308 236.934H349.17C349.448 236.934 349.725 236.691 349.725 236.414L350.731 222.955C350.731 222.677 350.523 222.434 350.245 222.434H344.383C344.106 222.434 343.828 222.677 343.828 222.955L342.822 236.414Z"/>
<path fill="#393C41" d="M376.816 222.434C376.539 222.434 376.296 222.677 376.331 222.955L377.337 236.414C377.337 236.691 377.614 236.934 377.892 236.934H383.789C384.066 236.934 384.621 236.691 384.621 236.414L383.268 222.955C383.268 222.677 382.991 222.434 382.713 222.434H376.851H376.816Z"/>
<path fill="#393C41" d="M383.061 215.774C383.338 215.774 383.581 215.532 383.581 215.254V209.6C383.581 209.322 383.338 209.08 383.061 209.08H367.347C367.069 209.08 366.827 208.837 366.827 208.559V204.57C366.827 204.293 366.584 204.05 366.306 204.05H360.652C360.375 204.05 360.132 204.293 360.132 204.57V208.559C360.132 208.837 359.889 209.08 359.611 209.08H344.002C343.724 209.08 343.482 209.322 343.482 209.6V215.254C343.482 215.532 343.724 215.774 344.002 215.774H359.611C359.889 215.774 360.132 216.017 360.132 216.295V236.414C360.132 236.691 360.375 236.934 360.652 236.934H366.306C366.584 236.934 366.827 236.691 366.827 236.414V216.295C366.827 216.017 367.069 215.774 367.347 215.774H383.061Z"/>
<path fill="#393C41" d="M232.931 227.047C232.931 227.047 232.793 227.394 232.931 227.533L237.163 231.765C237.163 231.765 237.51 231.904 237.649 231.765L253.016 216.398C253.016 216.398 253.362 216.26 253.501 216.398L273.586 236.517C273.586 236.517 273.967 236.656 274.106 236.517L278.338 232.285C278.338 232.285 278.477 231.904 278.338 231.8L253.536 206.928C253.536 206.928 253.189 206.79 253.05 206.928L232.931 227.047Z"/>
<path fill="#393C41" d="M289.541 236.587C289.541 236.795 289.645 236.934 289.854 236.934H296.375C296.583 236.934 296.756 236.76 296.756 236.587L300.295 207.31C300.295 207.102 300.191 206.964 299.982 206.964H293.461C293.253 206.964 293.08 207.137 293.08 207.31L289.541 236.587Z"/>
<path fill="#393C41" d="M315.939 206.964C315.731 206.964 315.593 207.137 315.627 207.31L319.165 236.587C319.165 236.795 319.374 236.934 319.547 236.934H326.068C326.276 236.934 326.415 236.76 326.381 236.587L322.808 207.31C322.808 207.102 322.6 206.964 322.426 206.964H315.905H315.939Z"/>
<path fill="#1F7ACC" d="M387.397 203.598H391.386C391.663 203.598 391.906 203.841 391.906 204.119V211.854C391.906 212.132 391.663 212.374 391.386 212.374H387.397C387.119 212.374 386.876 212.132 386.876 211.854V204.119C386.876 203.841 387.119 203.598 387.397 203.598Z"/>
<path fill="#1F7ACC" d="M395.132 203.598H399.121C399.399 203.598 399.642 203.841 399.642 204.119V211.854C399.642 212.132 399.399 212.374 399.121 212.374H395.132C394.855 212.374 394.612 212.132 394.612 211.854V204.119C394.612 203.841 394.855 203.598 395.132 203.598Z"/>
<path fill="#1F7ACC" d="M274.071 213.519C276.812 213.519 279.032 211.299 279.032 208.559C279.032 205.818 276.812 203.598 274.071 203.598C271.331 203.598 269.111 205.818 269.111 208.559C269.111 211.299 271.331 213.519 274.071 213.519Z"/>
<path fill="#1F7ACC" d="M332.416 203.598C329.676 203.598 327.456 205.818 327.456 208.559C327.456 211.299 329.676 213.519 332.416 213.519C335.156 213.519 337.376 211.299 337.376 208.559C337.376 205.818 335.156 203.598 332.416 203.598Z"/>
<path fill="#005BAC" d="M31.2553 226.353C31.186 228.435 30.2841 231.21 27.5437 231.21C27.2315 231.21 24.6993 231.21 23.9709 228.226C23.8321 227.845 23.7281 227.186 23.7281 226.214C23.7281 222.884 25.74 221.601 27.405 221.601C29.4169 221.601 31.3594 223.266 31.29 226.353M20.0511 212.235V234.262H23.7628V232.632C24.5606 233.568 25.9828 234.713 28.0294 234.713C31.741 234.713 35.1057 231.452 35.1057 226.388C35.1057 221.323 31.8104 218.167 28.2722 218.167C26.5725 218.167 25.0115 218.791 23.7281 219.936V212.201H20.0511V212.235ZM46.2752 218.653L43.2921 230.308L39.8233 218.653H35.7995L41.4536 234.574C41.4536 234.886 41.0027 235.58 40.5864 235.858C39.9967 236.274 39.1642 236.274 38.8867 236.274C38.5051 236.274 38.2276 236.274 37.8807 236.17V239.431C38.3317 239.5 38.9214 239.604 40.1355 239.604C43.0492 239.604 44.1939 238.459 45.2693 235.164L46.1365 232.215L50.0909 218.618H46.2405L46.2752 218.653Z"/>
<path fill="#005BAC" d="M139.274 234.748C139.274 234.748 139.031 234.678 138.962 234.574L129.665 219.381L124.636 236.76C124.636 236.76 124.497 236.968 124.358 236.968H114.611C114.611 236.968 114.437 236.864 114.472 236.76L124.774 204.257C124.774 204.257 124.913 204.049 125.052 204.049H128.729C128.729 204.049 128.972 204.118 129.041 204.222L141.563 223.613L154.051 204.222C154.051 204.222 154.259 204.049 154.363 204.049H158.005C158.005 204.049 158.248 204.153 158.283 204.257L168.551 236.76C168.551 236.76 168.551 236.968 168.412 236.968H158.664C158.664 236.968 158.422 236.864 158.387 236.76L153.357 219.381L144.061 234.574C144.061 234.574 143.853 234.748 143.749 234.748H139.274ZM114.923 218.548C114.923 218.548 114.819 218.375 114.715 218.375H86.9646C85.5077 218.375 84.2936 219.554 84.2936 221.046C84.2936 222.538 85.473 223.717 86.9646 223.717H103.441C101.464 228.92 94.8387 232.736 86.9646 232.736C77.5294 232.736 69.8981 227.29 69.8981 220.526C69.8981 213.761 77.5294 208.315 86.9646 208.315C92.1331 208.315 96.7465 209.946 99.8685 212.513C99.8685 212.513 99.9378 212.547 99.9725 212.547H111.315C111.315 212.547 111.524 212.443 111.524 212.339C111.524 212.305 111.524 212.235 111.489 212.201C106.667 207.067 97.475 203.598 86.9646 203.598C71.4244 203.598 58.8326 211.16 58.8326 220.491C58.8326 229.822 71.4244 237.384 86.9646 237.384C102.505 237.384 115.096 229.822 115.096 220.491C115.096 219.832 115.027 219.173 114.923 218.548ZM196.058 203.598C211.598 203.598 224.19 211.16 224.19 220.491C224.19 229.822 211.598 237.384 196.058 237.384C180.518 237.384 167.926 229.822 167.926 220.491C167.926 211.16 180.518 203.598 196.058 203.598ZM196.058 232.701C205.493 232.701 213.125 227.255 213.125 220.491C213.125 213.727 205.458 208.281 196.058 208.281C186.658 208.281 178.992 213.727 178.992 220.491C178.992 227.255 186.658 232.701 196.058 232.701Z"/>
</g>
<defs>
<clipPath id="clip0_376_10582">
<rect transform="translate(20 202.643)" fill="white" height="37" width="380"/>
</clipPath>
</defs>
</svg>